<svg version="1.1" id="Layer_1" xmlns="http://www.w3.org/2000/svg" xmlns:xlink="http://www.w3.org/1999/xlink" x="0px" y="0px"
	 width="300px" height="300px" viewBox="0 0 300 300" enable-background="new 0 0 30 30" xml:space="preserve">
<rect x="0" display="none" width="30" height="30"/>
<polygon opacity="0.3" fill="#fdc5f7" points="300,0 0,300 1,300 300,1 "/>
<polygon opacity="0.3" fill="#fdc5f7" points="300,50 0,350 10,350 300,60 "/>
<polygon opacity="0.3" fill="#fdc5f7" points="30,10 0,40 1,40 30,11 "/>
<polygon opacity="0.3" fill="#fdc5f7" points="280,15 0,45 1,45 280,16 "/>
<polygon opacity="0.3" fill="#fdc5f7" points="30,20 0,50 1,50 30,21 "/>
<polygon opacity="0.3" fill="#fdc5f7" points="30,25 0,55 1,55 30,26 "/>
<polygon opacity="0.3" fill="#fdc5f7" points="26,-1 -4,29 -3,29 26,0 "/>
<polygon opacity="0.3" fill="#fdc5f7" points="21,-1 -9,29 -8,29 21,0 "/>
<polygon opacity="0.3" fill="#fdc5f7" points="16,-1 -14,29 -13,29 16,0 "/>
<polygon opacity="0.3" fill="#fdc5f7" points="11,-1 -19,29 -18,29 11,0 "/>
<polygon opacity="0.3" fill="#fdc5f7" points="6,-1 -24,29 -23,29 6,0 "/>
<polygon opacity="0.3" fill="#fdc5f7" points="1,-1 -29,29 -28,29 1,0 "/>
</svg>
